<?xml version="1.0" encoding="utf-8"?>
<!-- Generator: Adobe Illustrator 16.0.0, SVG Export Plug-In . SVG Version: 6.00 Build 0)  -->
<!DOCTYPE svg PUBLIC "-//W3C//DTD SVG 1.1//EN" "http://www.w3.org/Graphics/SVG/1.1/DTD/svg11.dtd">
<svg version="1.1" id="L7" xmlns="http://www.w3.org/2000/svg" xmlns:xlink="http://www.w3.org/1999/xlink" x="0px" y="0px"
	 width="502.329px" height="591.969px" viewBox="-0.489 110.773 502.329 591.969"
	 enable-background="new -0.489 110.773 502.329 591.969" xml:space="preserve">
<linearGradient id="SVGID_1_" gradientUnits="userSpaceOnUse" x1="0.0107" y1="406.8311" x2="418.6084" y2="406.8311">
	<stop  offset="0" style="stop-color:#0D1C5D"/>
	<stop  offset="1" style="stop-color:#0D5FBD"/>
</linearGradient>
<linearGradient id="SVGID_2_" gradientUnits="userSpaceOnUse" x1="-0.4893" y1="406.7578" x2="419.2559" y2="406.7578">
	<stop  offset="0" style="stop-color:#E9E9E9"/>
	<stop  offset="1" style="stop-color:#000000"/>
</linearGradient>
<path fill="url(#SVGID_1_)" stroke="url(#SVGID_2_)" stroke-miterlimit="10" d="M193.392,111.42
	C36.108,173.232-40.392,351.324,21.42,508.608C83.232,665.892,261.324,743.004,418.608,680.58l-18.973-48.348
	C269.28,683.64,121.788,619.992,70.38,489.636C18.972,359.28,82.62,211.788,212.976,160.38L193.392,111.42z">
<animateTransform  restart="always" to="360 50 50" from="0 50 50" dur="2s" type="rotate" fill="remove" calcMode="linear" additive="replace" accumulate="none" repeatCount="indefinite" attributeName="transform" attributeType="XML">
		</animateTransform>
</path>
<linearGradient id="SVGID_3_" gradientUnits="userSpaceOnUse" x1="233.7842" y1="384.0669" x2="427.1738" y2="384.0669">
	<stop  offset="0" style="stop-color:#0D1C5D"/>
	<stop  offset="1" style="stop-color:#0D5FBD"/>
</linearGradient>
<path fill="url(#SVGID_3_)" d="M258.876,332.352c34.884-26.316,85.068-18.972,110.772,16.524
	c26.315,34.884,18.972,85.068-16.524,110.772l25.092,33.659c53.856-39.779,64.872-116.28,25.092-169.523
	c-39.779-53.856-116.28-64.872-169.523-25.092L258.876,332.352z">
<animateTransform  restart="always" to="-360 50 50" from="0 50 50" dur="1s" type="rotate" fill="remove" calcMode="linear" additive="replace" accumulate="none" repeatCount="indefinite" attributeName="transform" attributeType="XML">
		</animateTransform>
</path>
<linearGradient id="SVGID_4_" gradientUnits="userSpaceOnUse" x1="91.4106" y1="332.4629" x2="501.8398" y2="332.4629">
	<stop  offset="0" style="stop-color:#0D1C5D"/>
	<stop  offset="1" style="stop-color:#0D5FBD"/>
</linearGradient>
<path fill="url(#SVGID_4_)" d="M501.84,308.484C453.492,200.16,326.808,151.812,218.484,200.16
	C110.16,248.508,61.812,375.192,110.16,483.516l46.512-20.808c-36.72-82.62,0-179.316,82.62-216.036
	c82.62-36.72,179.316,0,216.036,82.62L501.84,308.484z">
<animateTransform  restart="always" to="360 50 50" from="0 50 50" dur="2s" type="rotate" fill="remove" calcMode="linear" additive="replace" accumulate="none" repeatCount="indefinite" attributeName="transform" attributeType="XML">
		</animateTransform>
</path>
</svg>
